<?xml version="1.0" encoding="UTF-8"?>
<svg version="1.1" xmlns="http://www.w3.org/2000/svg" width="1408" height="768">
<path d="M0 0 C0.33 0.66 0.66 1.32 1 2 C0.10579453 4.25521652 -0.84050501 6.3448844 -1.9375 8.5 C-2.2567041 9.1293042 -2.5759082 9.7586084 -2.90478516 10.40698242 C-5.94154842 16.19807079 -9.60137694 21.15573783 -14 26 C-14.67675781 26.74636719 -15.35351562 27.49273437 -16.05078125 28.26171875 C-26.82484965 39.54790009 -40.25768185 48.11852795 -53 57 C-49.80980062 55.5893584 -46.62336785 54.17039391 -43.4375 52.75 C-42.54224609 52.35425781 -41.64699219 51.95851562 -40.72460938 51.55078125 C-36.74509602 49.77239066 -32.87237125 47.99024535 -29.13671875 45.73828125 C-21.35229305 41.42437161 -12.59636301 44.34364901 -4.375 46.25 C-3.49247559 46.45423584 -2.60995117 46.65847168 -1.70068359 46.86889648 C4.18485356 48.32461898 9.54736324 50.35418478 15 53 C15 53.33 15 53.66 15 54 C13.31970703 54.19916016 13.31970703 54.19916016 11.60546875 54.40234375 C10.13279271 54.58056569 8.66013753 54.75896011 7.1875 54.9375 C6.44951172 55.02451172 5.71152344 55.11152344 4.95117188 55.20117188 C1.83266879 55.58216546 -1.01108122 56.00369374 -4 57 C-3.26136719 57.29132813 -2.52273438 57.58265625 -1.76171875 57.8828125 C12.85593988 63.78931243 26.35534231 71.14820313 36 84 C32.03583878 85.32138707 29.97179829 84.14441646 26 83 C24.00042242 82.95889623 21.99942533 82.95205891 20 83 C20.54527344 83.51046875 21.09054687 84.0209375 21.65234375 84.546875 C31.93293457 94.45841897 39.07322977 105.11737404 45 118 C45.3403125 117.24976563 45.680625 116.49953125 46.03125 115.7265625 C49.55102107 108.29385444 53.62227504 102.19932182 59 96 C59.6084375 95.28199219 60.216875 94.56398438 60.84375 93.82421875 C62.21814291 92.20671389 63.6072187 90.6016985 65 89 C63.27073126 89.31193464 61.54158956 89.62457362 59.8125 89.9375 C58.84957031 90.11152344 57.88664063 90.28554687 56.89453125 90.46484375 C54.25760028 90.9523735 51.6280095 91.46671105 49 92 C56.50700179 78.58272379 70.78991449 70.04657243 85 65 C85.66 65 86.32 65 87 65 C87 64.34 87 63.68 87 63 C81.06 62.34 75.12 61.68 69 61 C71.75103379 58.24896621 72.58361274 57.55483122 76.01953125 56.4296875 C76.79490234 56.17316406 77.57027344 55.91664062 78.36914062 55.65234375 C79.57860352 55.26755859 79.57860352 55.26755859 80.8125 54.875 C82.00456055 54.47861328 82.00456055 54.47861328 83.22070312 54.07421875 C97.01875635 49.57758271 107.82432367 50.14136876 121.125 56 C123.33493619 56.93985792 125.54582464 57.87748098 127.7578125 58.8125 C128.7183252 59.23144531 129.67883789 59.65039062 130.66845703 60.08203125 C132.89253541 61.1221152 132.89253541 61.1221152 135 61 C134.50822266 60.72438232 134.01644531 60.44876465 133.50976562 60.16479492 C92.7728643 37.22901169 92.7728643 37.22901169 81 18 C80.5565625 17.30390625 80.113125 16.6078125 79.65625 15.890625 C78.5 14 78.5 14 77 11 C77.33 10.34 77.66 9.68 78 9 C78.69222656 9.61746094 79.38445312 10.23492187 80.09765625 10.87109375 C105.9651304 33.26230655 139.93703712 42.60039544 171.69140625 53.6875 C173.41738037 54.29549438 173.41738037 54.29549438 175.17822266 54.91577148 C177.28276616 55.65622398 179.39034273 56.38813685 181.50146484 57.10961914 C189.6624001 59.98205826 193.82364694 62.91789219 197.59375 70.78125 C200.89919141 75.996502 206.48859818 78.49889284 211.8125 81.25 C212.50537109 81.61351562 213.19824219 81.97703125 213.91210938 82.3515625 C215.6055689 83.23916887 217.30244124 84.12025885 219 85 C219 83.02 219 81.04 219 79 C225.44611231 83.89904536 231.08662144 89.54967546 232.4765625 97.84375 C232.65076088 103.60813283 231.70455164 107.92896568 229 113 C228.5359375 112.62488281 228.071875 112.24976563 227.59375 111.86328125 C220.37719166 106.51818113 212.52862735 104.30619224 204 102 C203.16307617 101.76861328 202.32615234 101.53722656 201.46386719 101.29882812 C198.83437027 100.57769519 196.20011192 99.87832069 193.5625 99.1875 C192.74676514 98.96827881 191.93103027 98.74905762 191.09057617 98.52319336 C185.5882486 97.13515326 180.67429741 96.80120079 175 97 C178.50224112 100.52697177 182.0077629 104.05063751 185.51635742 107.57128906 C186.70932155 108.76927995 187.90138634 109.96816709 189.0925293 111.16796875 C190.8054176 112.89299507 192.52152084 114.61476576 194.23828125 116.3359375 C194.76964188 116.87245941 195.3010025 117.40898132 195.84846497 117.96176147 C200.08445941 122.19839545 202.67729579 124.20075029 208.6875 124.625 C210.17830078 124.73714844 210.17830078 124.73714844 211.69921875 124.8515625 C212.45847656 124.90054688 213.21773437 124.94953125 214 125 C212.75496414 128.64838868 211.57136003 130.77394131 208.5625 133.1875 C207.96566406 133.67605469 207.36882812 134.16460937 206.75390625 134.66796875 C201.16916937 138.90938362 196.91669863 139.13562154 190 139 C189.9484375 138.35933594 189.896875 137.71867188 189.84375 137.05859375 C189.19324003 132.09845526 188.34273802 128.67384354 184.625 125.1875 C168.36751148 112.86420799 145.54197213 112.32513895 126 112 C128.83332467 108.95483798 131.65500311 106.83131399 135.25 104.75 C136.58804688 103.96882813 136.58804688 103.96882813 137.953125 103.171875 C138.62859375 102.78515625 139.3040625 102.3984375 140 102 C132.6175961 96.37341108 125.14941135 90.99027727 117.421875 85.84765625 C116.62265625 85.23792969 115.8234375 84.62820312 115 84 C115 83.34 115 82.68 115 82 C127.375 81.505 127.375 81.505 140 81 C134.1158472 79.69241049 129.01667485 78.67354999 123.12109375 78.1484375 C122.42355484 78.08467926 121.72601593 78.02092102 121.00733948 77.95523071 C118.81784391 77.75634637 116.62773765 77.56551852 114.4375 77.375 C112.93680061 77.24012024 111.43614898 77.10470785 109.93554688 76.96875 C106.29089486 76.6396909 102.64564924 76.3178438 99 76 C101.64 78.31 104.28 80.62 107 83 C104.4057527 85.69357659 101.76979289 87.98783072 98.75 90.1875 C88.55700951 98.1079549 80.15502051 108.95137522 78 122 C76.23371865 146.19927261 82.73282673 164.51695814 93.41015625 185.828125 C106.95814489 213.09495763 110.44434367 242.77906886 100.8125 272 C96.04371859 284.6123592 89.42967493 295.52144574 81 306 C79.11017079 303.16525618 77.99512873 300.65432613 76.75 297.5 C70.19459257 281.64506111 61.06747285 269.04018267 48 258 C50.76161683 256.15892211 53.43840806 254.9447555 56.49658203 253.69213867 C68.19576496 248.85706686 76.35833992 243.78055121 82 232 C85.60356815 222.82728106 84.44025208 214.00493168 81 205 C78.89242603 200.69793092 76.54646709 196.54330776 74.1875 192.375 C61 168.53540759 61 168.53540759 61 161 C60.34 161 59.68 161 59 161 C58.731875 161.804375 58.46375 162.60875 58.1875 163.4375 C56.79166667 167.625 55.39583333 171.8125 54 176 C53.34 175.67 52.68 175.34 52 175 C50.23816332 168.95851714 50.81401492 162.42427716 50.81469727 156.18286133 C50.81253054 153.96871128 50.7944071 151.75507639 50.77539062 149.54101562 C50.74328774 141.16145589 51.25119775 133.23670995 53 125 C52.36191406 125.6496875 51.72382812 126.299375 51.06640625 126.96875 C50.24011719 127.8040625 49.41382813 128.639375 48.5625 129.5 C47.73878906 130.3353125 46.91507813 131.170625 46.06640625 132.03125 C44 134 44 134 43 134 C42.6596875 132.700625 42.6596875 132.700625 42.3125 131.375 C40.639267 127.07240086 38.27675521 123.13837761 34 121 C34.33 121.99 34.66 122.98 35 124 C37.05341812 150.56414968 29.8340193 170.72166844 15.47265625 192.921875 C8.2667335 204.09383799 2.10996811 214.14606625 4 228 C6.49550092 236.41594952 11.33430297 241.88534629 18.5 246.8125 C19.42377441 247.460979 19.42377441 247.460979 20.36621094 248.12255859 C24.28317413 250.85839124 28.25637531 253.50224389 32.25 256.125 C50.30181601 268.08762442 65.039076 283.11722799 72 304 C72.33644531 304.88558594 72.67289063 305.77117187 73.01953125 306.68359375 C73.83559576 309.32474835 74.24865932 311.24598072 74 314 C71.99028335 317.43855175 69.11351393 319.57440737 66 322 C64.95543793 322.86135266 63.91255839 323.72474854 62.87109375 324.58984375 C40.36653438 343 40.36653438 343 36 343 C35.91363281 341.92363281 35.82726562 340.84726562 35.73828125 339.73828125 C34.85942151 330.12830927 33.21649445 321.79375849 29 313 C28.51789063 311.99453125 28.03578125 310.9890625 27.5390625 309.953125 C20.83475255 297.32939993 10.72629859 289.2196039 -0.83886719 281.2956543 C-16.05323059 270.85425601 -27.35797934 258.37230748 -31.5 240.015625 C-34.91606635 219.41247481 -24.66400278 201.43825678 -13.125 185.25 C1.48150064 164.70650335 10.0076603 144.46181744 6.71582031 118.78320312 C5.10147396 110.11853449 1.17732697 103.02469137 -4 96 C-4.4228125 95.40574219 -4.845625 94.81148438 -5.28125 94.19921875 C-8.52774865 89.95464112 -12.67705914 87.04237158 -17 84 C-17.68320312 83.50886719 -18.36640625 83.01773438 -19.0703125 82.51171875 C-20.70867927 81.33434992 -22.35364294 80.16616958 -24 79 C-23.04270084 77.87411986 -22.08412105 76.7493285 -21.125 75.625 C-20.59132813 74.99851562 -20.05765625 74.37203125 -19.5078125 73.7265625 C-18.38567993 72.44163349 -17.20628025 71.20628025 -16 70 C-28.60997193 70.4238646 -41.98237668 71.99412556 -54 76 C-43.11 76.495 -43.11 76.495 -32 77 C-38.74390041 84.86788382 -38.74390041 84.86788382 -42.05078125 87.45703125 C-42.74880859 88.01197266 -43.44683594 88.56691406 -44.16601562 89.13867188 C-44.87435547 89.69103516 -45.58269531 90.24339844 -46.3125 90.8125 C-47.74862642 91.94079418 -49.18235044 93.07215509 -50.61328125 94.20703125 C-51.24016846 94.6966333 -51.86705566 95.18623535 -52.51293945 95.69067383 C-54.13202799 96.95091722 -54.13202799 96.95091722 -55 99 C-54.43152344 99.17015625 -53.86304688 99.3403125 -53.27734375 99.515625 C-48.0677886 101.15067737 -43.64636859 103.13309172 -39 106 C-41.60100863 108.60100863 -43.01485971 108.39707783 -46.64453125 108.7109375 C-48.36361694 108.87311768 -48.36361694 108.87311768 -50.11743164 109.03857422 C-51.94649048 109.20510498 -51.94649048 109.20510498 -53.8125 109.375 C-63.30205869 110.3386525 -72.15159772 111.25953904 -81 115 C-82.33804688 115.55494141 -82.33804688 115.55494141 -83.703125 116.12109375 C-90.5236355 119.23524899 -98.18481836 123.68331504 -101 131 C-101.23920955 133.13287373 -101.23920955 133.13287373 -101.125 135.25 C-101.08375 136.4875 -101.0425 137.725 -101 139 C-108.82212334 139.7489267 -114.4447636 138.40205656 -121 134 C-125 129.9047619 -125 129.9047619 -125 127 C-123.700625 126.835 -122.40125 126.67 -121.0625 126.5 C-111.33960196 124.2550875 -105.71914099 115.63055149 -99.9699707 108.09619141 C-96.60760665 103.69718318 -93.05528679 99.78493434 -89 96 C-97.61369842 96.30674487 -104.98765484 98.33342822 -113.0625 101.25 C-114.16916016 101.63285156 -115.27582031 102.01570313 -116.41601562 102.41015625 C-130.47482339 107.14797983 -130.47482339 107.14797983 -141 117 C-141.99 116.67 -142.98 116.34 -144 116 C-146.85370854 109.9755042 -148.54399343 102.44879463 -146.30859375 96.0078125 C-143.9390376 90.9117796 -140.67088478 86.24693132 -137 82 C-136.67 82 -136.34 82 -136 82 C-136 83.98 -136 85.96 -136 88 C-132.95677324 86.40487873 -129.97682261 84.71553184 -127 83 C-126.16082031 82.55011719 -125.32164062 82.10023438 -124.45703125 81.63671875 C-118.02157982 77.77544789 -115.05987285 73.54386558 -112.56616211 66.59423828 C-109.43248265 59.25269343 -101.86968559 56.98529015 -95 54 C-93.80246094 53.4647168 -92.60492187 52.92943359 -91.37109375 52.37792969 C-88.34499925 51.04148676 -85.31065774 49.72802702 -82.26712036 48.43188477 C-80.30981856 47.59720372 -78.35560387 46.75563756 -76.40209961 45.91210938 C-71.62076826 43.84753083 -66.83892804 41.78424425 -62.04833984 39.74121094 C-43.35729959 31.75406138 -22.16742011 22.56062219 -7.82421875 7.75390625 C-6 6 -6 6 -4 6 C-3.71125 5.38125 -3.4225 4.7625 -3.125 4.125 C-2 2 -2 2 0 0 Z " fill="#151B23" transform="translate(671,63)"/>
<path d="M0 0 C3.35372037 2.77747976 4.95375081 6.20872612 7 10 C23.58203902 31.99658237 52.30371813 42.09118125 76.7109375 52.41796875 C87.34097106 56.92051717 97.80338665 61.57719391 108 67 C108.5986084 67.31791504 109.1972168 67.63583008 109.81396484 67.96337891 C124.60149175 75.90729156 137.52358549 85.82569423 150 97 C151.01320313 97.88558594 151.01320313 97.88558594 152.046875 98.7890625 C172.59437986 117.86888845 185.00004354 147.47470687 186.23828125 175.2421875 C186.50461229 186.42086058 185.16889539 196.29814293 182 207 C181.81808105 207.64420898 181.63616211 208.28841797 181.44873047 208.95214844 C173.63210734 236.34874888 154.93605393 259.35638587 130.07421875 273.265625 C99.62317714 289.44876137 65.26956333 292.70874014 32.19018555 282.79370117 C11.58375527 276.23532464 -5.32615091 264.74055509 -21 250 C-21.60199219 249.46246094 -22.20398438 248.92492187 -22.82421875 248.37109375 C-36.29224942 235.84488341 -46.25907002 217.23485917 -52 200 C-52.24411621 199.28650391 -52.48823242 198.57300781 -52.73974609 197.83789062 C-56.66869201 185.85162715 -57.47578148 174.13488783 -57.5 161.625 C-57.50449158 160.91169525 -57.50898315 160.1983905 -57.51361084 159.46347046 C-57.54818766 145.96316363 -55.67177247 133.12653933 -50.8125 120.4375 C-50.51134277 119.64013428 -50.21018555 118.84276855 -49.89990234 118.02124023 C-43.90460404 102.66348457 -33.59688779 83.85789121 -19.734375 74.46484375 C-15.98511688 73.82746987 -14.50846657 75.11962055 -11.47265625 77.23242188 C-10.82167969 77.71259766 -10.17070313 78.19277344 -9.5 78.6875 C-8.19848183 79.60887178 -6.89640991 80.5294619 -5.59375 81.44921875 C-4.98144531 81.88927246 -4.36914062 82.32932617 -3.73828125 82.78271484 C-1.5597592 84.30829223 0.69508939 85.6746764 3 87 C1.77363535 90.32788153 0.40470541 93.02042933 -1.6875 95.875 C-15.55643371 116.32235214 -20.15651124 141.78258598 -16.50390625 166.10546875 C-15.8329672 169.15691473 -15.00701348 172.04340843 -14 175 C-13.63648438 176.15242187 -13.27296875 177.30484375 -12.8984375 178.4921875 C-4.88314727 202.53805818 10.67435189 220.24965889 33 232 C51.39984945 241.19992473 72.94228748 241.32655592 92.21484375 234.93359375 C109.90856266 228.03372653 122.64797057 216.41139624 130.3515625 198.93359375 C133.2991593 191.14048709 134.18095639 183.96516183 134.1875 175.6875 C134.19974609 174.88376953 134.21199219 174.08003906 134.22460938 173.25195312 C134.26497191 156.52841085 126.971787 142.1307303 115.5 130.1875 C109.84805277 124.85095161 103.60441965 120.63936615 97 116.5625 C96.45021484 116.21525879 95.90042969 115.86801758 95.33398438 115.51025391 C83.63727947 108.45289805 70.43443256 103.90368462 57.6065979 99.37365723 C54.44917039 98.25724012 51.29758961 97.12472567 48.14555359 95.99319458 C45.8292309 95.16175393 43.51236325 94.33185066 41.1953125 93.50244141 C40.12095947 93.11768646 40.12095947 93.11768646 39.02490234 92.72515869 C37.20934643 92.07497121 35.39373907 91.42492741 33.578125 90.77490234 C11.37743791 82.7729204 -7.83474326 72.37165754 -25 56 C-25.7115625 55.37480469 -26.423125 54.74960937 -27.15625 54.10546875 C-38.22564652 43.93846868 -48.06598517 29.23880078 -53 15 C-53 14.01 -53 13.02 -53 12 C-39.04278966 4.77215893 -39.04278966 4.77215893 -31 5 C-30.64808594 5.68964844 -30.29617188 6.37929688 -29.93359375 7.08984375 C-26.50320174 13.6192322 -22.74750411 19.3636015 -18 25 C-17.39414062 25.73992187 -16.78828125 26.47984375 -16.1640625 27.2421875 C9.470308 57.48028169 50.23231558 68.82687643 86 82 C78.4367795 77.64465493 70.71081016 74.04355215 62.66317749 70.67843628 C29.22788875 56.63733235 -6.62709875 38.75171278 -24 5 C-24 4.01 -24 3.02 -24 2 C-16.27966796 -0.57344401 -8.01280893 -1.50134736 0 0 Z " fill="#151B23" transform="translate(616,405)"/>
<path d="M0 0 C2.16027866 1.50162406 4.24001421 3.01334641 6.3125 4.625 C6.86228516 5.04523438 7.41207031 5.46546875 7.97851562 5.8984375 C9.32292168 6.92720039 10.66201413 7.9629009 12 9 C9.66578359 11.59272897 7.24970103 13.0458592 4.1875 14.6875 C-1.93630631 18.29026488 -5.38534471 22.55050916 -8.375 28.9375 C-11.33247303 43.42911787 -4.57893323 56.10250482 3 68 C4.13334978 69.57157836 5.27838606 71.13482645 6.4375 72.6875 C23.43029183 96.44630048 28.65313062 127.67208067 24.3515625 156.203125 C23.52116679 160.55950137 22.32929514 164.77259333 21 169 C20.64591064 170.17900879 20.64591064 170.17900879 20.28466797 171.38183594 C13.46447678 193.76402364 2.32130143 213.50616618 -13.703125 230.55078125 C-15.69108754 232.67059844 -17.57134636 234.8364453 -19.4375 237.0625 C-36.44558588 256.52291454 -60.05823106 271.75721575 -82 285 C-63.67242388 276.41947992 -46.58372865 265.85290929 -30.68701172 253.32861328 C-29.16739434 252.13183213 -27.63336204 250.95340915 -26.09765625 249.77734375 C3.7372369 226.3387713 21.71682618 195.73988386 30 159 C30.18691406 158.35417969 30.37382813 157.70835937 30.56640625 157.04296875 C31.2519451 153.81290734 31.37288526 150.53872777 31.5625 147.25 C31.62727539 146.20392578 31.62727539 146.20392578 31.69335938 145.13671875 C31.79889596 143.42468078 31.8998991 141.71236439 32 140 C32.66 140.33 33.32 140.66 34 141 C42.70733672 172.8731523 33.0094061 209.280475 17.27734375 237.203125 C2.14252859 262.99362452 -22.4586157 282.29835278 -48.08642578 296.89111328 C-50.17239147 298.09989819 -52.22394218 299.35785255 -54.27734375 300.62109375 C-55.70523893 301.47738052 -57.13361296 302.33286938 -58.5625 303.1875 C-59.21750488 303.5990332 -59.87250977 304.01056641 -60.54736328 304.43457031 C-63.59528031 306.21821859 -65.38593394 307.10850966 -68.91796875 306.484375 C-69.93503906 305.99453125 -70.95210937 305.5046875 -72 305 C-73.34837356 304.40622239 -74.69738836 303.81389979 -76.046875 303.22265625 C-77.61546732 302.50453192 -79.18312073 301.78435441 -80.75 301.0625 C-93.05745666 295.4518857 -105.52557143 290.22613212 -118 285 C-118 284.01 -118 283.02 -118 282 C-117.25242432 281.59910156 -116.50484863 281.19820313 -115.73461914 280.78515625 C-92.60357494 268.33092902 -69.47027859 255.67246059 -49.55419922 238.34863281 C-48.16939735 237.14699198 -46.76008164 235.97373473 -45.34765625 234.8046875 C-39.44145627 229.81722974 -34.75523035 224.07125351 -30 218 C-29.40445313 217.29359375 -28.80890625 216.5871875 -28.1953125 215.859375 C-8.78481635 192.42366075 -2.36246731 162.98576468 -4.23828125 133.21875 C-6.31701975 115.24501103 -14.321628 97.9815413 -22.5625 82.0625 C-25.22924511 76.81930589 -27.41271091 71.54476749 -29.375 66 C-29.62580322 65.29367432 -29.87660645 64.58734863 -30.13500977 63.85961914 C-34.8080746 50.21153534 -34.88943022 34.26497835 -29 21 C-24.08217375 11.50814689 -16.32120635 3.93737037 -7.140625 -1.41796875 C-4.06767277 -2.25349773 -2.7926823 -1.4897072 0 0 Z " fill="#151B23" transform="translate(788,154)"/>
<path d="M0 0 C2.41045792 7.23137377 -2.89583888 16.49367828 -6 23 C-12.9708779 35.84971226 -23.32136479 46.44970796 -33.31665039 56.97558594 C-33.88246826 57.57274414 -34.44828613 58.16990234 -35.03125 58.78515625 C-35.53205078 59.30988525 -36.03285156 59.83461426 -36.54882812 60.37524414 C-38.15283303 62.17111436 -39.58005181 64.05653823 -41 66 C-38.16340153 63.81670902 -35.33135553 61.62758457 -32.5 59.4375 C-31.70851563 58.82841797 -30.91703125 58.21933594 -30.1015625 57.59179688 C-29.31523437 56.98271484 -28.52890625 56.37363281 -27.71875 55.74609375 C-26.52572266 54.82352783 -26.52572266 54.82352783 -25.30859375 53.88232422 C-23.09209754 52.07509222 -21.08256324 50.15007455 -19.03125 48.16015625 C-11.62746527 41.65455061 -1.44889785 42.68456914 7.875 42.75 C9.51662109 42.73839844 9.51662109 42.73839844 11.19140625 42.7265625 C18.64146704 42.74419578 25.6946974 43.55245866 33 45 C33 45.66 33 46.32 33 47 C31.51886719 47.39832031 31.51886719 47.39832031 30.0078125 47.8046875 C28.71344502 48.16110753 27.41917941 48.51789766 26.125 48.875 C25.47402344 49.04902344 24.82304688 49.22304687 24.15234375 49.40234375 C20.1931563 50.49529579 20.1931563 50.49529579 17 53 C17.969375 53.268125 18.93875 53.53625 19.9375 53.8125 C33.90533953 57.83245231 46.98437906 63.30796142 58 73 C58.76828125 73.62648438 59.5365625 74.25296875 60.328125 74.8984375 C65.64802933 79.35517855 69.47503866 84.02830079 73 90 C65.5 87.5 65.5 87.5 58 85 C58.58007812 85.87140625 59.16015625 86.7428125 59.7578125 87.640625 C66.81400451 98.34228903 72.51221508 108.75692417 76.3125 121.0625 C76.56733154 121.87734863 76.82216309 122.69219727 77.0847168 123.53173828 C78.9536013 129.90238514 79.37622223 135.13844454 80 142 C72.08 142.33 64.16 142.66 56 143 C55.484375 140.525 54.96875 138.05 54.4375 135.5 C50.29776679 117.20493548 41.85979657 99.07086468 25.875 88.4375 C16.07529392 82.47187865 6.2460847 78.31000659 -5 76 C-3.74433095 72.52276264 -2.26656844 69.90617542 0 67 C-3.93208946 68.59074225 -7.86046137 70.19027403 -11.78588867 71.79736328 C-13.11632605 72.34069333 -14.44768077 72.88178359 -15.7800293 73.42041016 C-24.13985749 76.80212597 -32.18763269 80.45866039 -40 85 C-39.41508789 84.84853516 -38.83017578 84.69707031 -38.22753906 84.54101562 C-35.56961122 83.85571095 -32.90985445 83.1777866 -30.25 82.5 C-28.86941406 82.14228516 -28.86941406 82.14228516 -27.4609375 81.77734375 C-26.12675781 81.43896484 -26.12675781 81.43896484 -24.765625 81.09375 C-23.54020996 80.77954102 -23.54020996 80.77954102 -22.29003906 80.45898438 C-20 80 -20 80 -16 80 C-17.67825888 83.8413481 -20.17732887 86.9792768 -22.75 90.25 C-23.64880897 91.40465886 -24.54724706 92.5596065 -25.4453125 93.71484375 C-25.88133789 94.27413574 -26.31736328 94.83342773 -26.76660156 95.40966797 C-29.22087128 98.57417963 -31.60735838 101.78882309 -34 105 C-28.39 106.98 -22.78 108.96 -17 111 C-19.79370796 112.86247197 -21.55321072 113.55790029 -24.7265625 114.41015625 C-42.74700256 119.44076605 -60.83059967 125.55131541 -72.5625 141.125 C-74.27040063 144.54080125 -74.86125718 147.18457255 -75 151 C-74.38382633 152.68598702 -73.72434897 154.35758081 -73 156 C-89.53898249 156.63520985 -89.53898249 156.63520985 -96 153 C-98.5625 150.3125 -98.5625 150.3125 -100 148 C-97 146 -97 146 -95.203125 145.31640625 C-88.8718077 142.87251777 -86.35558711 138.77926382 -83.12646484 133.00976562 C-81.73691497 130.53062073 -80.31530918 128.07075264 -78.89453125 125.609375 C-75.90625644 120.41942153 -72.94580649 115.21415736 -70 110 C-74.52963147 110.55081596 -77.87480673 111.72488807 -81.88671875 113.87890625 C-82.99080078 114.47123047 -84.09488281 115.06355469 -85.23242188 115.67382812 C-86.37259766 116.29708984 -87.51277344 116.92035156 -88.6875 117.5625 C-89.80833984 118.15869141 -90.92917969 118.75488281 -92.08398438 119.36914062 C-107.02607687 127.43437236 -107.02607687 127.43437236 -118 140 C-122.77043355 135.5166126 -125.2228929 130.43757525 -125.6875 123.875 C-125.46812099 116.4474534 -121.60512335 110.29976912 -118 104 C-117.34 105.32 -116.68 106.64 -116 108 C-112.23238823 108 -111.21369601 106.63069703 -108.6171875 104.07617188 C-108.08351563 103.53541016 -107.54984375 102.99464844 -107 102.4375 C-106.46632813 101.92380859 -105.93265625 101.41011719 -105.3828125 100.88085938 C-99.98405489 95.47538689 -98.01494484 89.66018894 -96.234375 82.30859375 C-93.06919122 76.38889877 -86.2048477 72.60424988 -80.75 68.9375 C-80.0681665 68.4734375 -79.38633301 68.009375 -78.68383789 67.53125 C-76.45844806 66.017031 -74.22941397 64.50828668 -72 63 C-55.74169298 51.97759073 -39.82582204 40.90955933 -25 28 C-24.22785156 27.34 -23.45570313 26.68 -22.66015625 26 C-20.74999465 24.357481 -18.86874256 22.68937665 -17 21 C-16.443125 20.50886719 -15.88625 20.01773438 -15.3125 19.51171875 C-9.21567114 13.82416775 -4.70876808 6.83102976 0 0 Z " fill="#151B23" transform="translate(523,200)"/>
<path d="M0 0 C0.33 0 0.66 0 1 0 C2.51615945 28.80702954 -11.0522419 49.70637738 -25 74 C-15.92650101 65.07052481 -8.8146604 55.73922768 -2.55053711 44.67529297 C1.02655491 38.65038821 4.94015699 35.43237006 11 32 C11.71357666 31.5762207 12.42715332 31.15244141 13.16235352 30.71582031 C45.19995348 12.05684067 83.88685879 4.51775359 120.01171875 14.03125 C133.4436026 17.8051729 146.81305727 23.58588923 158 32 C154.34168142 33.33340584 152.32109811 32.62656855 148.75 31.25 C114.56904589 19.41813127 74.98925304 26.65375422 43 42 C30.53306305 48.1796484 19.1289392 55.6786822 8 64 C7.38141113 64.46019531 6.76282227 64.92039062 6.12548828 65.39453125 C-0.82216271 70.60011266 -7.4155586 76.13047254 -13.8125 82 C-14.41795654 82.55228271 -15.02341309 83.10456543 -15.6472168 83.67358398 C-19.04191163 86.84486868 -19.04191163 86.84486868 -21 91 C-18.26925298 89.73247575 -15.54040402 88.46111668 -12.8125 87.1875 C-12.04357422 86.83107422 -11.27464844 86.47464844 -10.48242188 86.10742188 C-7.22819863 84.58505993 -4.12760858 83.07956369 -1.07421875 81.17578125 C-0.38972656 80.78777344 0.29476562 80.39976562 1 80 C1.66 80.33 2.32 80.66 3 81 C-1.95 90.9 -6.9 100.8 -12 111 C-7.05 111.33 -2.1 111.66 3 112 C4.485 112.99 4.485 112.99 6 114 C1.23220302 117.0654749 -3.60029514 119.91245146 -8.59643555 122.58862305 C-16.34632181 126.75129098 -23.46535616 131.04231128 -30 137 C-30.64066406 137.56074219 -31.28132813 138.12148438 -31.94140625 138.69921875 C-38.26232146 144.55596308 -44.516923 153.20307604 -45.25 162 C-44.995744 165.05107204 -44.29705701 167.24375385 -43 170 C-49.1311278 172.87504863 -55.36006887 172.75436788 -62 172 C-65.09070568 170.79332391 -67.67129293 169.38656314 -70 167 C-70 166.34 -70 165.68 -70 165 C-68.30729167 164.38151042 -66.61458333 163.76302083 -64.921875 163.14453125 C-60.0048948 160.21632963 -58.09581941 155.32610542 -56.125 150.1875 C-55.75145386 149.22203247 -55.75145386 149.22203247 -55.37036133 148.23706055 C-54.57080513 146.1615157 -53.78504886 144.08107064 -53 142 C-52.43913571 140.53372651 -51.87793623 139.06758119 -51.31640625 137.6015625 C-50.77254973 136.17221247 -50.22955677 134.74253352 -49.6875 133.3125 C-49.43307129 132.64178467 -49.17864258 131.97106934 -48.91650391 131.2800293 C-47.77023885 128.21695001 -46.68882467 125.20100874 -46 122 C-53.19011747 126.27443991 -59.65802311 131.01044838 -66.0078125 136.453125 C-68.90841992 138.92204933 -71.88050357 141.27160173 -74.875 143.625 C-81.28189094 148.85944836 -85.59917695 154.44261545 -89 162 C-93.87729942 160.10209436 -95.47334069 156.69548063 -97.7890625 152.19921875 C-101.34636458 142.80105617 -98.97252453 133.84950777 -95 125 C-93 127 -93 127 -93 131 C-82.44252886 121.22675995 -82.44252886 121.22675995 -77.90234375 108.23828125 C-77.91394531 107.27277344 -77.92554688 106.30726563 -77.9375 105.3125 C-77.55733165 100.46960336 -76.73539044 98.04663361 -73.37890625 94.5390625 C-72.56365479 93.68062744 -71.74840332 92.82219238 -70.90844727 91.93774414 C-69.9413709 90.95611987 -68.9717078 89.97703985 -68 89 C-67.45463593 88.44915741 -66.90927185 87.89831482 -66.34738159 87.33078003 C-61.26922241 82.21586293 -56.14131915 77.15123353 -51.00195312 72.09790039 C-43.16725312 64.3854972 -35.77763912 56.67139123 -29 48 C-27.96602726 46.75487034 -26.92750427 45.51349366 -25.8828125 44.27734375 C-14.68247152 30.8100316 -5.79443814 16.57649393 0 0 Z " fill="#151B23" transform="translate(514,339)"/>
<path d="M0 0 C3.10433372 2.91619228 5.78233322 5.92974289 8.375 9.3125 C12.79079543 15.06352515 17.24751787 20.58750907 22.75 25.33984375 C23.4524585 25.94699219 24.15491699 26.55414063 24.87866211 27.1796875 C25.57870361 27.78039062 26.27874512 28.38109375 27 29 C27.61689697 29.53367188 28.23379395 30.06734375 28.86938477 30.6171875 C43.44440618 43.14744844 59.13856069 54.05863702 75.37548828 64.3190918 C79.31953845 66.84511835 83.16875102 69.49441914 87 72.1875 C87.73605469 72.69474609 88.47210937 73.20199219 89.23046875 73.72460938 C96.62691968 78.91829213 98.49967997 83.06590397 100.83984375 91.80859375 C102.69203125 96.90366846 105.94090217 100.15256865 110 103.625 C110.99 104.47964844 110.99 104.47964844 112 105.3515625 C113.9574488 106.96492851 115.95788571 108.49576403 118 110 C118 108.02 118 106.04 118 104 C118.66 104 119.32 104 120 104 C124.99897856 112.25724137 127.68066386 119.29084116 126 129 C124.66568993 132.57191595 123.03541051 135.77968979 121 139 C120.01 139 119.02 139 118 139 C117.10412137 137.58726831 116.20826406 136.17452309 115.3125 134.76171875 C106.03406488 122.30762876 84.15753329 113.49017449 70 108 C70.47308594 108.74121094 70.94617188 109.48242188 71.43359375 110.24609375 C75.01019417 115.94216108 78.36279069 121.62587446 81.37573242 127.64257812 C86.97378156 138.84189014 86.97378156 138.84189014 97.0546875 145.84375 C99.15337558 146.5235355 99.15337558 146.5235355 102 147 C98.45697201 151.98238311 95.19151417 154.88381023 89 156 C84.32093203 156.22665022 79.6799807 156.17747118 75 156 C75.15855469 155.40832031 75.31710937 154.81664062 75.48046875 154.20703125 C76.57026079 149.57746355 76.42465051 146.04232397 74.625 141.625 C64.43696943 125.92138046 44.94012312 120.1446236 28 115 C26.33710937 114.48759766 26.33710937 114.48759766 24.640625 113.96484375 C22.43120296 113.29390344 20.2197331 112.63580295 18 112 C18.33 111.34 18.66 110.68 19 110 C21.85741085 109.1986381 24.66711443 108.50291494 27.5625 107.875 C28.36880859 107.69324219 29.17511719 107.51148438 30.00585938 107.32421875 C32.00223825 106.87532882 34.0009198 106.43670257 36 106 C35.38253906 105.20078125 34.76507812 104.4015625 34.12890625 103.578125 C28.35752866 96.09734654 22.64935336 88.57340849 17 81 C20.98801195 79.67066268 23.89767074 80.80312472 27.8125 81.875 C32.52864204 83.13553566 37.16099745 84.28592427 42 85 C28.91733419 78.65059144 15.85336657 72.50601182 2 68 C2.3609375 68.48210937 2.721875 68.96421875 3.09375 69.4609375 C3.78984375 70.40839844 3.78984375 70.40839844 4.5 71.375 C4.9640625 72.00148438 5.428125 72.62796875 5.90625 73.2734375 C7 75 7 75 7 77 C6.1028125 77.12375 5.205625 77.2475 4.28125 77.375 C-10.84007276 79.87439219 -23.31497822 85.80127525 -34 97 C-34.5465625 97.52722656 -35.093125 98.05445313 -35.65625 98.59765625 C-44.23346098 107.5170432 -48.98496817 120.23740873 -52 132 C-52.33 132 -52.66 132 -53 132 C-53.03963867 131.19594727 -53.07927734 130.39189453 -53.12011719 129.56347656 C-54.22447144 104.06136593 -54.22447144 104.06136593 -59.921875 79.28125 C-60 77 -60 77 -58.04296875 74.53515625 C-49.56013103 67.18955259 -41.36158213 61.73244564 -30.875 57.6875 C-29.88947144 57.30513184 -29.88947144 57.30513184 -28.8840332 56.91503906 C-24.25356707 55.21903323 -19.90952498 54.46471005 -15 54 C-16.73163479 50.53673042 -20.68430266 50.11375011 -24.1875 48.88671875 C-27.11147358 47.96485486 -29.95006793 47.32972239 -33 47 C-33 46.34 -33 45.68 -33 45 C-25.17159634 43.05569787 -17.67003117 42.66495227 -9.625 42.6875 C-8.48289062 42.67138672 -7.34078125 42.65527344 -6.1640625 42.63867188 C5.66376945 42.63195152 14.92909791 44.18686732 24 52 C25.41949114 53.08036132 26.84675733 54.15057602 28.28125 55.2109375 C34.140625 59.60546875 34.140625 59.60546875 40 64 C37.37390605 60.66574588 34.66441126 57.45531659 31.8125 54.3125 C31.02488281 53.43851563 30.23726562 52.56453125 29.42578125 51.6640625 C27.87364169 49.95945834 26.30956731 48.26559827 24.73046875 46.5859375 C13.58117675 34.59703157 0 17.22800579 0 0 Z " fill="#151B23" transform="translate(885,200)"/>
<path d="M0 0 C3.15514912 1.57757456 3.33113754 4.30395611 4.5 7.5625 C15.22395676 35.69552148 39.17035805 58.53515605 60.1875 79.1875 C63.33261497 82.27935629 66.47094205 85.37788302 69.60546875 88.48046875 C70.31994675 89.17835007 71.03442474 89.87623138 71.77055359 90.59526062 C72.75847649 91.57327385 72.75847649 91.57327385 73.76635742 92.57104492 C74.34447678 93.13869064 74.92259613 93.70633636 75.51823425 94.29118347 C78.69441729 97.95405264 79.1557967 100.80066475 79.1875 105.5625 C79.68121283 112.80068279 82.72623623 117.31033482 87 123 C87.59296875 123.81339844 88.1859375 124.62679687 88.796875 125.46484375 C90.17389528 127.33037836 91.57147684 129.17379274 93 131 C93.99 129.35 94.98 127.7 96 126 C100.82993995 131.70811085 101.50951045 137.61454285 101.3828125 144.890625 C100.59555592 151.28507642 97.86193689 156.26219223 93.1875 160.625 C92.465625 161.07875 91.74375 161.5325 91 162 C90.62488281 161.33613281 90.24976563 160.67226563 89.86328125 159.98828125 C89.35152344 159.10527344 88.83976563 158.22226562 88.3125 157.3125 C87.56419922 156.00732422 87.56419922 156.00732422 86.80078125 154.67578125 C84.806078 151.71185126 82.59332928 149.45272709 80 147 C79.23042969 146.25621094 78.46085938 145.51242187 77.66796875 144.74609375 C72.23188868 139.68668695 66.61323674 135.03358265 60.6875 130.5625 C59.6833606 129.80054321 59.6833606 129.80054321 58.65893555 129.02319336 C54.92395314 126.24673391 51.25404876 123.94565021 47 122 C47.44730469 123.05316406 47.89460937 124.10632813 48.35546875 125.19140625 C51.39892769 132.43049675 54.30241852 139.64005592 56.6875 147.125 C59.87697354 157.24824768 59.87697354 157.24824768 67.75 163.9375 C69.1575227 164.64353155 70.57142291 165.33760421 72 166 C68.29702676 170.27266143 65.0300549 171.78324495 59.37890625 172.1875 C54.19189887 172.30010803 49.83940355 172.09271505 45 170 C45.15726563 169.42507813 45.31453125 168.85015625 45.4765625 168.2578125 C47.0837753 161.32520803 46.17449146 155.81751953 42.7265625 149.60546875 C33.14818394 135.15121875 18.81877586 127.20400031 3.96875 119.1640625 C-2.15405482 115.84082962 -2.15405482 115.84082962 -5 114 C-5 113.67 -5 113.34 -5 113 C-0.84373632 111.99073521 3.04365094 111.89760421 7.3125 111.9375 C8.56675781 111.94652344 9.82101562 111.95554687 11.11328125 111.96484375 C12.06589844 111.97644531 13.01851562 111.98804688 14 112 C13.57589844 111.13197754 13.15179687 110.26395508 12.71484375 109.36962891 C11.14546175 106.15491069 9.58122828 102.93771037 8.01855469 99.71972656 C7.34092606 98.32613748 6.66189476 96.93322955 5.98144531 95.54101562 C5.00478259 93.54213157 4.03315656 91.54086863 3.0625 89.5390625 C2.75626709 88.91504547 2.45003418 88.29102844 2.13452148 87.64810181 C0 83.22774341 0 83.22774341 0 81 C5.2063297 82.58019592 9.98373311 84.77884995 14.875 87.125 C15.65875 87.49753906 16.4425 87.87007813 17.25 88.25390625 C19.16813499 89.16618997 21.08427329 90.08266984 23 91 C20.85433453 86.22203004 17.42778307 83.08574092 13.75 79.4375 C13.03344238 78.72585693 12.31688477 78.01421387 11.57861328 77.28100586 C5.11236677 70.95396425 -1.63689806 65.25006584 -9 60 C-9.56928223 59.59168945 -10.13856445 59.18337891 -10.72509766 58.76269531 C-30.75414662 44.61192094 -50.83438804 41.39101908 -75 42 C-73.91467378 38.84734333 -72.80365763 35.7043602 -71.6875 32.5625 C-71.37876953 31.66466797 -71.07003906 30.76683594 -70.75195312 29.84179688 C-70.44580078 28.98779297 -70.13964844 28.13378906 -69.82421875 27.25390625 C-69.54666748 26.46314697 -69.26911621 25.6723877 -68.9831543 24.85766602 C-68 23 -68 23 -65 22 C-43.79104034 20.46732581 -18.18030599 23.05826448 -1.3046875 37.4453125 C2.57980573 41.66943356 5.4221921 46.74065226 8.46435547 51.58374023 C13.46751604 59.46398036 19.33912124 66.46721507 26 73 C25.64808594 72.3922876 25.29617188 71.7845752 24.93359375 71.15844727 C-0.2595318 27.51037058 -0.2595318 27.51037058 -0.0625 6.625 C-0.05347656 5.37976563 -0.04445313 4.13453125 -0.03515625 2.8515625 C-0.02355469 1.91054688 -0.01195312 0.96953125 0 0 Z " fill="#151B23" transform="translate(894,339)"/>
<path d="M0 0 C18.43520191 10.00207763 31.38993586 36.58097738 37.5 55.875 C38.39714367 58.90198762 39.22390965 61.93988301 40 65 C40.26554688 66.04542969 40.53109375 67.09085938 40.8046875 68.16796875 C47.08348418 100.03501219 38.71573007 133.46981852 20.87890625 160.17578125 C-0.62518248 189.72952886 -29.63169821 206.45093037 -64.51171875 215.6171875 C-67.08749261 216.0134604 -68.53432074 215.70037693 -71 215 C-69.92363281 214.46632813 -68.84726562 213.93265625 -67.73828125 213.3828125 C-57.97404301 208.44118273 -49.37927495 203.02851751 -41 196 C-40.18015625 195.33226562 -39.3603125 194.66453125 -38.515625 193.9765625 C-24.7334653 182.33301379 -14.86410846 166.52860473 -8 150 C-7.62101563 149.12214844 -7.24203125 148.24429688 -6.8515625 147.33984375 C1.9739994 125.34229662 2.22261775 97.41539969 -5 75 C-5.21430664 74.32227539 -5.42861328 73.64455078 -5.64941406 72.94628906 C-11.58784533 54.681507 -21.09770331 38.94752607 -34.3125 24.99609375 C-36 23 -36 23 -36 21 C-35.45698242 20.73896484 -34.91396484 20.47792969 -34.35449219 20.20898438 C-22.15464934 14.312996 -10.82987155 8.1976111 0 0 Z " fill="#151B23" transform="translate(810,476)"/>
<path d="M0 0 C4.09301083 0.3563779 7.66998985 1.48311642 11.484375 2.9609375 C12.50273438 3.35023438 13.52109375 3.73953125 14.5703125 4.140625 C15.61960937 4.54796875 16.66890625 4.9553125 17.75 5.375 C25.09780204 8.21517286 32.41268282 10.868044 40 13 C38.53364629 16.04343532 36.92702051 18.41111075 34.75 21 C23.88335173 34.74778466 21.68289163 49.00600932 23 66 C24.50925066 74.58386314 27.97980269 81.92054699 33 89 C33.48984375 89.69738281 33.9796875 90.39476562 34.484375 91.11328125 C41.41181347 99.94405058 52.86259172 106.63787093 64 108 C75.17624414 108.84099518 85.07240969 108.82336031 95 103 C95.73347656 102.5771875 96.46695313 102.154375 97.22265625 101.71875 C105.14607837 96.46700201 110.84697007 87.86789667 114 79 C114.33 79 114.66 79 115 79 C115.49248402 95.16989192 111.67489485 107.95976661 100.96484375 120.35546875 C90.09797482 131.79730429 75.41139974 138.25301761 59.625 139.203125 C38.89444494 139.47119252 20.41029706 133.0988915 5.24462891 118.66455078 C-11.91885342 101.69482367 -20.09550439 80.57961293 -20.3125 56.625 C-20.2397576 37.01226356 -13.9407023 18.14071253 -2.4375 2.125 C-1.633125 1.42375 -0.82875 0.7225 0 0 Z " fill="#151B23" transform="translate(627,497)"/>
<path d="M0 0 C11.75667019 4.58310872 20.25734871 13.86697546 25.5625 25.125 C28.60404464 32.13331441 30.05686693 38.530828 30 46.125 C29.99436035 46.9180957 29.9887207 47.71119141 29.98291016 48.52832031 C29.84647526 55.18256069 28.88918757 61.13227801 26.6875 67.4375 C26.36652344 68.4275 26.04554688 69.4175 25.71484375 70.4375 C21.28391314 82.29130792 13.60827778 92.37003037 6.51806641 102.74902344 C-5.30810667 120.11763078 -11.76226716 136.60402552 -8.8515625 157.79296875 C-4.50064864 177.16733222 8.38224508 191.55820646 24.30493164 202.55957031 C33.88924506 209.26224933 46.82424294 218.69814606 49.6875 230.4375 C48.759375 229.6125 47.83125 228.7875 46.875 227.9375 C30.58467362 214.05814192 10.92737221 202.85632365 -10.0625 198.125 C-19.53635726 195.55832378 -23.65805393 188.00416187 -28.453125 179.91015625 C-37.39229811 163.21493588 -40.72896871 142.9040099 -35.3125 124.4375 C-33.86600824 120.32182157 -32.17479241 116.38117805 -30.3125 112.4375 C-29.90386719 111.56609375 -29.49523437 110.6946875 -29.07421875 109.796875 C-23.63429986 99.07750681 -15.93527538 89.43353134 -7.95141602 80.49682617 C-1.43397695 73.1797435 2.67165028 65.33894228 6.6875 56.4375 C7.1825 55.4475 7.1825 55.4475 7.6875 54.4375 C8.76704043 44.29255298 9.06402948 33.874952 2.6875 25.4375 C-2.30020636 19.37137064 -9.30660864 15.76529839 -16.3125 12.4375 C-14.66892929 10.7425677 -12.99987402 9.08819198 -11.3125 7.4375 C-10.69632813 6.80199219 -10.08015625 6.16648438 -9.4453125 5.51171875 C-4.36123846 0.57601263 -4.36123846 0.57601263 0 0 Z " fill="#151B23" transform="translate(642.3125,147.5625)"/>
<path d="M0 0 C1.45212891 0.29197266 1.45212891 0.29197266 2.93359375 0.58984375 C18.47476789 4.07783635 36.566328 10.31555416 47 23 C47.59375 25.9375 47.59375 25.9375 47.5 29 C47.4896875 30.010625 47.479375 31.02125 47.46875 32.0625 C46.76808943 36.45330625 45.18864792 39.1215496 41.59570312 41.77685547 C40.66693359 42.30166504 39.73816406 42.82647461 38.78125 43.3671875 C37.76675781 43.94210937 36.75226563 44.51703125 35.70703125 45.109375 C34.11955078 45.98335938 34.11955078 45.98335938 32.5 46.875 C31.44167969 47.48085938 30.38335938 48.08671875 29.29296875 48.7109375 C23.43014104 51.98875731 23.43014104 51.98875731 21 53 C17.60173253 51.86724418 17.20511973 51.21980905 15.25 48.375 C5.78021229 35.45747405 -6.62101782 28.87760662 -22 25 C-22.60875977 24.8256543 -23.21751953 24.65130859 -23.84472656 24.47167969 C-52.31950975 18.23999855 -83.86759669 30.77076813 -107.47265625 45.82421875 C-118.46307374 52.96891485 -128.77587457 60.80580111 -139 69 C-136.92747911 62.2027548 -134.24561265 55.84607902 -131.1875 49.4375 C-130.77435547 48.54353516 -130.36121094 47.64957031 -129.93554688 46.72851562 C-119.46369138 24.67146406 -96.23655279 13.92717786 -74.24633789 5.70458984 C-50.68914742 -2.57139211 -24.5681161 -5.25751071 0 0 Z " fill="#151B23" transform="translate(651,374)"/>
<path d="M0 0 C1.05638672 0.00902344 2.11277344 0.01804687 3.20117188 0.02734375 C5.78019253 0.0506833 8.3587199 0.08342225 10.9375 0.125 C9.53299897 4.92677578 7.45755628 9.05693235 4.875 13.3125 C4.48014404 13.96669922 4.08528809 14.62089844 3.6784668 15.29492188 C-0.05824463 21.34941531 -4.39236317 26.76233338 -9.0625 32.125 C-9.59617187 32.77984375 -10.12984375 33.4346875 -10.6796875 34.109375 C-23.18178661 49.38220959 -47.53086532 68.52386726 -67.6953125 71.515625 C-70.92231946 70.9831156 -72.04173203 69.6445297 -74.3125 67.3125 C-81.90477532 60.08666934 -90.96174549 54.55914715 -100.07421875 49.4296875 C-100.73035156 48.99914062 -101.38648438 48.56859375 -102.0625 48.125 C-102.0625 47.465 -102.0625 46.805 -102.0625 46.125 C-99.94351989 44.69384022 -97.83747461 43.39796816 -95.625 42.125 C-94.95049805 41.72909668 -94.27599609 41.33319336 -93.58105469 40.92529297 C-92.14126307 40.08094621 -90.6996302 39.23973277 -89.25634766 38.40136719 C-87.14850132 37.17503505 -85.04768212 35.93761889 -82.94921875 34.6953125 C-79.41186595 32.60211988 -75.86683659 30.52237075 -72.31884766 28.44726562 C-69.98434232 27.07919801 -67.65433614 25.70365051 -65.32421875 24.328125 C-23.28842568 -0.38201834 -23.28842568 -0.38201834 0 0 Z " fill="#151B23" transform="translate(834.0625,418.875)"/>
<path d="M0 0 C7.61016124 3.99169638 11.98220202 8.11908172 15.52124023 15.90234375 C16.0447683 17.0130574 16.0447683 17.0130574 16.57887268 18.14620972 C17.30765235 19.70105856 18.02915314 21.25933813 18.74365234 22.82080078 C19.84144636 25.21531958 20.96551363 27.59614372 22.09350586 29.9765625 C22.80016372 31.49275431 23.50529695 33.00965785 24.20874023 34.52734375 C24.54505966 35.23988312 24.88137909 35.95242249 25.22789001 36.68655396 C27.51571152 41.73533614 27.51571152 41.73533614 26.40014648 45.08203125 C25.9734668 44.62054688 25.54678711 44.1590625 25.10717773 43.68359375 C10.47508241 28.41794378 -8.23052831 15.60433991 -29.94360352 14.84375 C-46.26331783 14.54955783 -58.4057727 16.63062225 -73.05297852 24.0078125 C-73.89344727 24.36230469 -74.73391602 24.71679688 -75.59985352 25.08203125 C-76.25985352 24.75203125 -76.91985352 24.42203125 -77.59985352 24.08203125 C-76.94500977 23.36402344 -76.29016602 22.64601563 -75.61547852 21.90625 C-69.04321151 14.51123253 -63.63660504 6.77243876 -58.57348633 -1.73168945 C-58.0975 -2.52019287 -57.62151367 -3.30869629 -57.13110352 -4.12109375 C-56.7140918 -4.82911133 -56.29708008 -5.53712891 -55.86743164 -6.26660156 C-46.44428685 -18.54282486 -10.84008026 -5.38184724 0 0 Z " fill="#151B23" transform="translate(869.599853515625,396.91796875)"/>
<path d="M0 0 C5.34916902 4.01792786 10.64619809 10.41953976 12 17 C10.85144531 17.06316406 9.70289063 17.12632812 8.51953125 17.19140625 C-4.09552408 18.10016982 -15.46018084 20.84994892 -24.375 30.65625 C-31.51975816 40.96118966 -35.90219644 51.97140491 -36.625 64.5 C-36.74875 66.645 -36.8725 68.79 -37 71 C-48.385 70.01 -48.385 70.01 -60 69 C-59.3726379 49.13353351 -53.45751915 29.69659667 -39.33984375 15.14453125 C-29.65213412 6.26547851 -13.66668775 -3.66390443 0 0 Z " fill="#151B23" transform="translate(897,284)"/>
<path d="M0 0 C14.42576513 1.57496486 29.08855748 7.00485442 38.96875 18.08203125 C49.03586358 30.92569223 56.7901355 45.38052609 55.96875 62.08203125 C52.33124619 63.62947762 48.74698249 64.71712303 44.90625 65.64453125 C43.88402344 65.89332031 42.86179687 66.14210938 41.80859375 66.3984375 C40.40287109 66.73681641 40.40287109 66.73681641 38.96875 67.08203125 C37.63517953 67.41441461 36.30179923 67.74756357 34.96875 68.08203125 C34.76121094 66.87289062 34.55367187 65.66375 34.33984375 64.41796875 C31.78754239 50.51355537 28.12596566 36.22743438 16.390625 27.0703125 C5.77222801 20.41052842 -2.48935873 18.59940657 -15.03125 18.08203125 C-13.35899297 14.31945294 -11.00918589 11.23144654 -8.53125 7.95703125 C-8.12777344 7.41949219 -7.72429687 6.88195312 -7.30859375 6.328125 C-2.60653153 0.10526377 -2.60653153 0.10526377 0 0 Z " fill="#151B23" transform="translate(515.03125,282.91796875)"/>
<path d="M0 0 C6.35587496 2.52650431 12.60461475 5.26873675 18.8203125 8.12109375 C18.8203125 8.78109375 18.8203125 9.44109375 18.8203125 10.12109375 C17.91152344 10.34152344 17.91152344 10.34152344 16.984375 10.56640625 C4.75420337 13.84032912 -3.8540327 19.95768128 -10.78515625 30.58203125 C-15.47462929 39.33045994 -15.61271358 49.12237995 -13.33984375 58.63671875 C-12.39609116 61.52851915 -11.35622851 64.31714748 -10.1796875 67.12109375 C-9.51302083 68.78776042 -8.84635417 70.45442708 -8.1796875 72.12109375 C-16.67396795 65.66544061 -21.62444727 57.46743343 -24.1796875 47.12109375 C-24.59110516 43.81608303 -24.65795517 40.57395579 -24.6171875 37.24609375 C-24.60888916 36.36767822 -24.60059082 35.4892627 -24.59204102 34.58422852 C-24.25936128 21.78730595 -18.79560662 10.48725828 -9.8046875 1.30859375 C-6.49266188 -1.1954432 -4.03365178 -1.24382642 0 0 Z " fill="#151B23" transform="translate(682.1796875,515.87890625)"/>
<path d="M0 0 C0.33 0 0.66 0 1 0 C1.5532918 27.66458977 1.5532918 27.66458977 -4.6875 34.75 C-5.93472132 35.9951867 -7.18372529 37.23880235 -8.45166016 38.46289062 C-10.29843173 40.29626714 -12.06015142 42.1963111 -13.82421875 44.109375 C-14.82545776 45.19460449 -14.82545776 45.19460449 -15.84692383 46.30175781 C-16.51618896 47.02717773 -17.1854541 47.75259766 -17.875 48.5 C-19.16012606 49.88906892 -20.44896668 51.27471412 -21.7421875 52.65625 C-22.57532471 53.55053711 -22.57532471 53.55053711 -23.42529297 54.46289062 C-25 56 -25 56 -28 58 C-26.37868087 52.11665033 -23.41726433 47.14877215 -20.4375 41.875 C-15.0341203 32.16014476 -10.37092512 22.262735 -5.92675781 12.08203125 C-4.10111793 7.9805937 -2.08228201 3.9762169 0 0 Z " fill="#151B23" transform="translate(481,357)"/>
<path d="M0 0 C3.191138 3.71153896 4.79435169 7.92310853 6.6875 12.375 C11.43974466 23.31621445 17.09890333 33.73279096 22.85424805 44.16943359 C23.20145401 44.80592834 23.54865997 45.4424231 23.90638733 46.09820557 C24.86074974 47.84758817 25.82391815 49.59215834 26.78759766 51.33642578 C27.18769043 52.21540527 27.5877832 53.09438477 28 54 C27.67 54.66 27.34 55.32 27 56 C24.13721333 53.19616506 21.28646261 50.38037495 18.4375 47.5625 C17.63763672 46.77939453 16.83777344 45.99628906 16.01367188 45.18945312 C6.32985218 35.58468502 0.10583762 28.70874022 -0.1953125 14.74609375 C-0.18225244 12.97645548 -0.15875164 11.20686457 -0.125 9.4375 C-0.11597656 8.52419922 -0.10695313 7.61089844 -0.09765625 6.66992188 C-0.07437253 4.44632681 -0.0416771 2.22331323 0 0 Z " fill="#151B23" transform="translate(928,358)"/>
<path d="M0 0 C3.78371826 1.6049421 6.58452291 4.12164462 9.625 6.8125 C16.9722174 13.17144546 24.81634166 18.75873315 32.73242188 24.38037109 C36.38768842 26.99116333 40.006846 29.65062856 43.625 32.3125 C44.27065918 32.786875 44.91631836 33.26125 45.58154297 33.75 C47.05482198 34.83270767 48.52748841 35.91624884 50 37 C48 38 48 38 45.51318359 37.35083008 C43.97138428 36.81558716 43.97138428 36.81558716 42.3984375 36.26953125 C41.26792969 35.87830078 40.13742187 35.48707031 38.97265625 35.08398438 C37.78542969 34.66439453 36.59820313 34.24480469 35.375 33.8125 C33.62896484 33.21211914 33.62896484 33.21211914 31.84765625 32.59960938 C14.13883097 26.41255094 14.13883097 26.41255094 11 21.25 C10.53335938 20.48300781 10.06671875 19.71601562 9.5859375 18.92578125 C6.21381965 12.70480521 3.07945565 6.36994 0 0 Z " fill="#151B23" transform="translate(789,73)"/>
<path d="M0 0 C0.33 0 0.66 0 1 0 C0.25702989 10.58732406 -1.41458577 24.07358428 -9.71484375 31.39453125 C-10.78157055 32.21041057 -11.85621926 33.01600952 -12.9375 33.8125 C-13.79214844 34.45554077 -13.79214844 34.45554077 -14.6640625 35.11157227 C-21.84900496 40.46360101 -29.291239 45.43339702 -37 50 C-35.67779189 47.14214722 -34.19791666 44.85229898 -32.1640625 42.453125 C-31.60033936 41.78120117 -31.03661621 41.10927734 -30.45581055 40.41699219 C-29.85164307 39.70188477 -29.24747559 38.98677734 -28.625 38.25 C-18.99773636 26.70275155 -10.0424655 14.74953436 -1.64453125 2.28125 C-0.83048828 1.15203125 -0.83048828 1.15203125 0 0 Z " fill="#151B23" transform="translate(484,211)"/>
<path d="M0 0 C3.57926691 3.39843286 6.39967438 6.82878665 9.125 10.9375 C15.51122515 20.38900443 22.68219752 29.20786005 29.9375 38 C32.86474631 41.55151568 35.57084001 45.09222089 38 49 C33.27588154 46.75323611 29.11443855 43.76820836 24.8125 40.8125 C23.99974609 40.26013672 23.18699219 39.70777344 22.34960938 39.13867188 C19.88257793 37.44884366 17.43715977 35.73260566 15 34 C14.16380127 33.41105957 13.32760254 32.82211914 12.46606445 32.21533203 C8.07553872 28.99210934 5.01896509 26.71363069 3.5625 21.25 C3.13904297 19.71085937 3.13904297 19.71085937 2.70703125 18.140625 C0 6.1160221 0 6.1160221 0 0 Z " fill="#151B23" transform="translate(925,212)"/>
<path d="M0 0 C0.66 0.33 1.32 0.66 2 1 C0.46032129 4.75977438 -1.11060002 8.50570132 -2.6875 12.25 C-3.12255859 13.31347656 -3.55761719 14.37695312 -4.00585938 15.47265625 C-4.44091797 16.49746094 -4.87597656 17.52226563 -5.32421875 18.578125 C-5.71697998 19.52075195 -6.10974121 20.46337891 -6.5144043 21.43457031 C-10.41623636 28.17252451 -17.99711599 30.49755145 -24.80297852 33.48364258 C-26.69750945 34.3169024 -28.58415729 35.16641836 -30.47070312 36.01757812 C-31.65986328 36.54416016 -32.84902344 37.07074219 -34.07421875 37.61328125 C-35.70750122 38.33704956 -35.70750122 38.33704956 -37.3737793 39.07543945 C-38.24043213 39.38054443 -39.10708496 39.68564941 -40 40 C-40.66 39.67 -41.32 39.34 -42 39 C-35.88934603 33.25851114 -29.80163777 27.55381021 -23.25 22.3125 C-18.89284931 18.81664654 -14.96541223 15.07718799 -11.07421875 11.07421875 C-8.64448187 8.64448187 -6.08052437 6.44808353 -3.41015625 4.2890625 C-1.73309585 2.85949881 -1.73309585 2.85949881 0 0 Z " fill="#151B23" transform="translate(628,68)"/>
<path d="M0 0 C0.495 0.99 0.495 0.99 1 2 C-6.40517341 13.70943045 -13.76316247 18.83798573 -27 23 C-27.80824219 23.25652344 -28.61648438 23.51304687 -29.44921875 23.77734375 C-34.54355883 24.88401368 -37.31028624 23.55194065 -41.6875 20.8125 C-43.47125253 19.55986479 -45.24335524 18.29037485 -47 17 C-48.2245199 16.1805136 -49.45264149 15.36632299 -50.6875 14.5625 C-51.450625 14.046875 -52.21375 13.53125 -53 13 C-49.76467082 11.92155694 -49.07325125 12.06677415 -45.9375 12.9375 C-30.61687837 16.50902755 -16.15047602 10.73240814 -3 3 C-1.17373624 1.41843486 -1.17373624 1.41843486 0 0 Z " fill="#151B23" transform="translate(745,290)"/>
<path d="M0 0 C14.70865625 5.3412821 29.13628819 11.73979303 43 19 C39.62261213 20.12579596 39.24218859 19.95746109 36.140625 18.62890625 C35.36493164 18.30535156 34.58923828 17.98179687 33.79003906 17.6484375 C32.95182617 17.29007812 32.11361328 16.93171875 31.25 16.5625 C19.99564545 11.89167082 8.53801546 7.90672053 -3 4 C-2.34 3.67 -1.68 3.34 -1 3 C-0.67 2.01 -0.34 1.02 0 0 Z " fill="#151B23" transform="translate(664,469)"/>
<!-- eye -->
<path d="M0 0 C7.32931293 2.47806824 13.80299765 8.35002275 17.625 15.0625 C18.305625 16.5165625 18.305625 16.5165625 19 18 C7.86305748 15.34010887 7.86305748 15.34010887 4 10 C2.47873234 6.72651316 1.18473777 3.40860309 0 0 Z " fill="#FFFFFF" transform="translate(956,277)"/>
<path d="M0 0 C6.64293505 5.18856465 12.20261154 11.40522309 16 19 C15.67 19.66 15.34 20.32 15 21 C3.73114526 14.87770201 3.73114526 14.87770201 1.875 9.9375 C1.34765625 7.93359375 1.34765625 7.93359375 1 6 C0.773125 4.845 0.54625 3.69 0.3125 2.5 C0.209375 1.675 0.10625 0.85 0 0 Z " fill="#FFFFFF" transform="translate(947,430)"/>
<path d="M0 0 C1 2 1 2 0.4609375 4.42578125 C-1.35254823 9.24652211 -2.63652835 12.22511285 -7.23046875 14.8359375 C-10.4625461 16.05545633 -13.66171946 17.11533122 -17 18 C-13.41708248 10.17323842 -6.97172343 4.78061035 0 0 Z " fill="#FFFFFF" transform="translate(452,277)"/>
<path d="M0 0 C-1.46147507 4.82286773 -3.84317618 9.07920145 -8 12 C-12.01452813 12.87561774 -15.89932776 13.04644774 -20 13 C-7.36111111 0 -7.36111111 0 0 0 Z " fill="#FFFFFF" transform="translate(586,127)"/>
<path d="M0 0 C8.48969822 0.36911731 15.26470027 4.92190075 21 11 C10.71470445 12.06399609 10.71470445 12.06399609 6.71484375 9.58203125 C3.77361536 6.65329216 1.74892223 3.7643469 0 0 Z " fill="#FFFFFF" transform="translate(838,129)"/>
<path d="M0 0 C1.34235886 4.02707659 0.44211803 7.13606419 -1 11 C-3.87729526 14.83639368 -7.76877066 16.88438533 -12 19 C-12.66 18.67 -13.32 18.34 -14 18 C-9.96237418 11.21335234 -5.9178511 5.27030509 0 0 Z " fill="#FFFFFF" transform="translate(461,431)"/>
<!-- /eye -->
<path d="M0 0 C1.92154764 0.9063904 3.83706654 1.82556804 5.75 2.75 C6.81734375 3.26046875 7.8846875 3.7709375 8.984375 4.296875 C11.86694755 5.92485639 13.80426309 7.54844908 16 10 C11.11899811 9.26861959 6.39975848 8.15925104 1.625 6.9375 C0.88894531 6.75123047 0.15289063 6.56496094 -0.60546875 6.37304688 C-2.40419444 5.91752543 -4.20217529 5.4590645 -6 5 C-6 4.67 -6 4.34 -6 4 C-4.35 3.67 -2.7 3.34 -1 3 C-0.67 2.01 -0.34 1.02 0 0 Z " fill="#151B23" transform="translate(656,362)"/>
<path d="M0 0 C0.66 0.33 1.32 0.66 2 1 C0.77702081 4.66893756 -0.10024382 4.91606233 -3.40234375 6.734375 C-4.29244141 7.22550781 -5.18253906 7.71664063 -6.09960938 8.22265625 C-7.03611328 8.72667969 -7.97261719 9.23070312 -8.9375 9.75 C-10.33645508 10.52923828 -10.33645508 10.52923828 -11.76367188 11.32421875 C-16.93784145 14.1451326 -16.93784145 14.1451326 -19 15 C-19.66 14.67 -20.32 14.34 -21 14 C-14.07 9.38 -7.14 4.76 0 0 Z " fill="#151B23" transform="translate(726,425)"/>
<path d="M0 0 C4.73789165 1.44323469 8.98858151 3.37226733 13.375 5.625 C14.01566406 5.94984375 14.65632812 6.2746875 15.31640625 6.609375 C16.87947501 7.40257407 18.44000622 8.20077031 20 9 C16.55959697 10.14680101 15.99729616 9.87124738 12.76953125 8.56640625 C11.96708984 8.24736328 11.16464844 7.92832031 10.33789062 7.59960938 C9.50451172 7.25736328 8.67113281 6.91511719 7.8125 6.5625 C6.96751953 6.22412109 6.12253906 5.88574219 5.25195312 5.53710938 C3.16443784 4.69974448 1.08083591 3.85379803 -1 3 C-0.67 2.01 -0.34 1.02 0 0 Z " fill="#151B23" transform="translate(687,479)"/>
<path d="M0 0 C2.75317974 0.22390317 5.49305329 0.41393662 8.25 0.5625 C8.99507812 0.60568359 9.74015625 0.64886719 10.5078125 0.69335938 C12.338349 0.79896725 14.16915176 0.89994201 16 1 C15.67 1.66 15.34 2.32 15 3 C6.75 2.67 -1.5 2.34 -10 2 C-6.12031116 -0.58645923 -4.36386662 -1.23608336 0 0 Z " fill="#151B23" transform="translate(624,138)"/>
<path d="M0 0 C-1.31115051 3.93345152 -2.84212778 4.32374076 -6.4375 6.25 C-7.42621094 6.79140625 -8.41492188 7.3328125 -9.43359375 7.890625 C-10.28050781 8.25671875 -11.12742187 8.6228125 -12 9 C-12.66 8.67 -13.32 8.34 -14 8 C-12.04532248 6.66101601 -10.0866421 5.32870953 -8.125 4 C-7.03445313 3.2575 -5.94390625 2.515 -4.8203125 1.75 C-2 0 -2 0 0 0 Z " fill="#151B23" transform="translate(719,431)"/>
<path d="M0 0 C0.99 0.495 0.99 0.495 2 1 C2.4140625 3.50390625 2.4140625 3.50390625 2.625 6.5625 C2.69976563 7.57441406 2.77453125 8.58632813 2.8515625 9.62890625 C2.92503906 10.80259766 2.92503906 10.80259766 3 12 C2.01 11.67 1.02 11.34 0 11 C0 7.37 0 3.74 0 0 Z " fill="#151B23" transform="translate(820,294)"/>
<path d="M0 0 C2.97 1.65 5.94 3.3 9 5 C5.59068103 6.13643966 4.99664544 5.86747764 1.8125 4.5625 C1.09707031 4.27503906 0.38164063 3.98757812 -0.35546875 3.69140625 C-0.89816406 3.46324219 -1.44085937 3.23507813 -2 3 C-1.34 2.01 -0.68 1.02 0 0 Z " fill="#151B23" transform="translate(798,119)"/>
<path d="M0 0 C0.99 0.33 1.98 0.66 3 1 C0.03 4.96 0.03 4.96 -3 9 C-3.33 8.34 -3.66 7.68 -4 7 C-3.22265625 5.2734375 -3.22265625 5.2734375 -2.0625 3.375 C-1.381875 2.26125 -0.70125 1.1475 0 0 Z " fill="#151B23" transform="translate(492,406)"/>
<path d="M0 0 C4.42857143 5.14285714 4.42857143 5.14285714 5 9 C0.125 4.25 0.125 4.25 -1 2 C-0.67 1.34 -0.34 0.68 0 0 Z " fill="#151B23" transform="translate(916,405)"/>
</svg>
